<svg xmlns="http://www.w3.org/2000/svg" xmlns:xlink="http://www.w3.org/1999/xlink" viewBox="0 0 186 44">
  <defs>
    <style>
      .google_play-svg-1 {
        fill: none;
      }

      .google_play-svg-2 {
        fill: #ffd400;
      }

      .google_play-svg-3 {
        fill: #f33;
      }

      .google_play-svg-4 {
        fill: #48ff48;
      }

      .google_play-svg-5 {
        fill: #3bccff;
      }

      .google_play-svg-6 {
        fill: #808285;
      }

      .google_play-svg-7 {
        clip-path: url(#clip-path);
      }

      .google_play-svg-8 {
        opacity: 0.2;
      }
    </style>
    <clipPath id="clip-path">
      <rect class="google_play-svg-1" x="261.81" y="3.94" width="144.37" height="35.13"/>
    </clipPath>
  </defs>
  <title>google_play</title>
  <g id="google_play">
    <path id="path16" class="google_play-svg-2" d="M30.16,28.52c5-2.75,8.85-4.85,9.18-5,1-.56,2.13-2,0-3.18-.69-.36-4.4-2.39-9.18-5l-6.59,6.62Z"/>
    <path id="path23" class="google_play-svg-3" d="M23.57,21.94l-21,21.2a2.8,2.8,0,0,0,1.71-.43L30.16,28.52l-6.59-6.58Z"/>
    <path id="path30" class="google_play-svg-4" d="M23.57,21.94l6.59-6.62S5.71,2,4.24,1.19A2.61,2.61,0,0,0,2.5.86Z"/>
    <path id="path37" class="google_play-svg-5" d="M23.57,21.94,2.5.86c-.85.2-1.57,1-1.57,2.49v37.3c0,1.41.55,2.42,1.6,2.52Z"/>
    <path id="path46" class="google_play-svg-6" d="M92.1,17.74A6.92,6.92,0,1,0,99,24.66,6.81,6.81,0,0,0,92.1,17.74Zm0,11.11a4,4,0,0,1-3.87-4.19,3.88,3.88,0,1,1,7.74,0A4,4,0,0,1,92.1,28.85Zm-15-11.11a6.92,6.92,0,0,0,0,13.83A6.79,6.79,0,0,0,84,24.66,6.79,6.79,0,0,0,77.09,17.74Zm0,11.11a4,4,0,0,1-3.87-4.19,3.88,3.88,0,1,1,7.74,0A4,4,0,0,1,77.09,28.85Zm-17.83-9v2.92h6.95a6.13,6.13,0,0,1-1.57,3.67,7.14,7.14,0,0,1-5.38,2.13,7.65,7.65,0,0,1-7.63-7.8A7.65,7.65,0,0,1,59.26,13a7.32,7.32,0,0,1,5.24,2.1L66.57,13a10.15,10.15,0,0,0-7.31-2.95A10.84,10.84,0,0,0,48.45,20.79,10.82,10.82,0,0,0,59.26,31.51a9.92,9.92,0,0,0,9.8-11.7Zm73,2.26a6.36,6.36,0,0,0-5.86-4.39c-3.54,0-6.46,2.79-6.46,6.92a6.81,6.81,0,0,0,12.49,3.86L130.08,27a3.89,3.89,0,0,1-3.37,1.9,3.41,3.41,0,0,1-3.31-2.1l9.17-3.83Zm-9.34,2.33a3.81,3.81,0,0,1,3.58-4A2.64,2.64,0,0,1,129,21.9Zm-7.43,6.69h3V10.86h-3Zm-5-11.87h-.1a4.72,4.72,0,0,0-3.61-1.54,6.91,6.91,0,0,0,0,13.8A4.64,4.64,0,0,0,110.42,30h.1v1c0,2.65-1.41,4.06-3.67,4.06a3.77,3.77,0,0,1-3.44-2.46l-2.63,1.12a6.56,6.56,0,0,0,6.07,4.1c3.54,0,6.52-2.1,6.52-7.18V18.17h-2.85v1.11Zm-3.44,9.57a3.94,3.94,0,0,1-3.81-4.16,4,4,0,0,1,3.81-4.2c2,0,3.67,1.77,3.67,4.2A3.88,3.88,0,0,1,107.08,28.85Zm39.26-18h-7.21V31.15h3V23.44h4.2A6.4,6.4,0,0,0,153,17.15,6.4,6.4,0,0,0,146.34,10.86Zm.1,9.77h-4.3V13.68h4.3A3.52,3.52,0,0,1,150,17.15,3.57,3.57,0,0,1,146.44,20.63ZM165,17.71a5.56,5.56,0,0,0-5.34,3.11l2.65,1.12a2.87,2.87,0,0,1,2.75-1.48,2.91,2.91,0,0,1,3.18,2.62v.2a6.43,6.43,0,0,0-3.14-.79c-2.89,0-5.81,1.61-5.81,4.56,0,2.72,2.36,4.46,5,4.46a4.19,4.19,0,0,0,3.83-2h.1v1.57h2.92V23.31C171.11,19.74,168.46,17.71,165,17.71Zm-.36,11.11c-1,0-2.36-.49-2.36-1.71,0-1.57,1.7-2.16,3.18-2.16a5.43,5.43,0,0,1,2.75.69A3.63,3.63,0,0,1,164.66,28.82Zm17-10.65L178.26,27h-.1l-3.57-8.78h-3.25l5.38,12.29-3.05,6.85h3.14l8.26-19.14Zm-27.07,13h3V10.86h-3Z"/>
  </g>
</svg>
